<svg id="Layer_1" data-name="Layer 1" xmlns="http://www.w3.org/2000/svg" viewBox="0 0 480 480"><defs><style>.cls-1{fill:#fff;}.cls-2{fill:#00c3d8;}</style></defs><title>NewLogo</title><path class="cls-1" d="M240,479.5A239.5,239.5,0,0,1,70.65,70.65a239.5,239.5,0,1,1,338.7,338.7A237.91,237.91,0,0,1,240,479.5Z"/><path class="cls-1" d="M240,1a239.06,239.06,0,0,1,93,459.22A239.06,239.06,0,0,1,147,19.78,237.55,237.55,0,0,1,240,1m0-1C107.45,0,0,107.45,0,240S107.45,480,240,480,480,372.55,480,240,372.55,0,240,0Z"/><path class="cls-2" d="M78,347.75,92.1,187q3-36,19.65-51.9t42.15-15.9q27.3,0,43.35,16.65t20.55,45.45l17.7,111.9a12.49,12.49,0,0,0,1.95,5.4,5.08,5.08,0,0,0,4.35,1.8,5.17,5.17,0,0,0,4.5-2.1,11.31,11.31,0,0,0,1.8-5.7L265.2,181q4.2-28.5,20.25-45.15t43.05-16.65q28.5,0,42.45,16T387.9,187L402,347.75H344.1l-12-169.5a21.74,21.74,0,0,0-1.05-5.1q-.75-2.1-3.75-2.1a4.7,4.7,0,0,0-3.9,1.95,9.11,9.11,0,0,0-1.8,4.65L301.5,298q-3.9,24-19.35,38.7t-40.65,14.7q-26.1,0-41.7-15.15t-19.5-38.55L159.3,178a10.92,10.92,0,0,0-2.1-5.1,4.84,4.84,0,0,0-3.9-1.8q-3,0-4.05,2.1a15.22,15.22,0,0,0-1.35,5.4l-12,169.2Z"/></svg>